<?xml version="1.0"?>
<svg xmlns="http://www.w3.org/2000/svg" id="Layer_1" data-name="Layer 1" viewBox="0 0 512 512" width="512" height="512"><title>Cash notes 4</title><path d="M221,347.5a61.475,61.475,0,0,1-36.993-110.593,61.487,61.487,0,1,0,53.986,108.186A61.282,61.282,0,0,1,221,347.5Z" style="fill:#d4e1f4"/><path d="M213.813,344h7.641a6,6,0,0,0,0-12h-7.641a36.9,36.9,0,0,1-32.959-21H210.3a6,6,0,0,0,0-12H177.749c-.078-1-.129-2.014-.129-3s.051-2,.129-3H210.3a6,6,0,0,0,0-12H180.854a36.9,36.9,0,0,1,32.959-21h7.641a6,6,0,0,0,0-12h-7.641A48.407,48.407,0,0,0,168,281H156a6,6,0,0,0,0,12h9.717c-.058,1-.1,2.017-.1,3s.039,2,.1,3H156a6,6,0,0,0,0,12h12A48.407,48.407,0,0,0,213.813,344Z" style="fill:#0635c9"/><path d="M201,369.5A73.5,73.5,0,1,0,127.5,296,73.583,73.583,0,0,0,201,369.5Zm0-135A61.5,61.5,0,1,1,139.5,296,61.57,61.57,0,0,1,201,234.5Z" style="fill:#0635c9"/><path d="M461,98H161c-19.851,0-36,15.649-36,35.5V138H101c-19.851,0-36,15.649-36,35.5v10a6,6,0,0,0,12,0v-10c0-13.234,10.767-23.5,24-23.5h53.784a86.615,86.615,0,0,1-8.513,31.08l10.747,5.466A98.175,98.175,0,0,0,166.813,150H335.186a98.056,98.056,0,0,0,9.934,36.7l10.729-5.25A82.462,82.462,0,0,1,347.216,150H401c13.233,0,24,10.266,24,23.5v53.784a83.465,83.465,0,0,1-40.962-14.126l-6.717,9.943A95.415,95.415,0,0,0,425,239.3v33.4a95.415,95.415,0,0,0-47.679,16.2l6.717,9.943A83.465,83.465,0,0,1,425,284.716V338.5c0,13.234-10.767,24.5-24,24.5H381a6,6,0,0,0,0,12h20c19.851,0,36-16.649,36-36.5V335h24c19.851,0,36-16.649,36-36.5v-165C497,113.649,480.851,98,461,98ZM137,133.5c0-13.234,10.767-23.5,24-23.5h53.784a87.96,87.96,0,0,1-6.955,28H137Zm83.8,4.5a99.54,99.54,0,0,0,6.011-28H395.191a100.861,100.861,0,0,0,6.019,28c-.07,0-.14,0-.21,0Zm194.828,2.869A87.346,87.346,0,0,1,407.224,110H461c13.233,0,24,10.266,24,23.5v53.765a83.808,83.808,0,0,1-48.529-19.748A35.9,35.9,0,0,0,415.63,140.869ZM485,199.289V232.71a95.768,95.768,0,0,0-48,16.421V182.849A96,96,0,0,0,485,199.289ZM461,323H437V264.18a83.789,83.789,0,0,1,48-19.445V298.5C485,311.734,474.233,323,461,323Z" style="fill:#1ae5be"/><path d="M387,214a36,36,0,0,0-36-36H51a36,36,0,0,0-36,36V379a36,36,0,0,0,36,36H351a36,36,0,0,0,36-36ZM27,378.5V324.738C68.541,327.687,101.812,361,104.762,403H51C37.767,403,27,391.734,27,378.5Zm0-65.807V279.307C75.164,276.322,113.821,238,116.807,190H285.193c2.986,48,41.643,86.322,89.807,89.307v33.386A95.941,95.941,0,0,0,285.193,403H116.807A95.941,95.941,0,0,0,27,312.693ZM351,403H297.238c2.95-42,36.221-75.313,77.762-78.262V378.5C375,391.734,364.233,403,351,403Zm24-189.5v53.762C333.459,264.313,300.188,231,297.238,190H351C364.233,190,375,200.266,375,213.5ZM51,190h53.762c-2.95,41-36.221,74.313-77.762,77.262V213.5C27,200.266,37.767,190,51,190Z" style="fill:#0635c9"/></svg>
